<?xml version="1.0" standalone="no"?>
<!DOCTYPE svg PUBLIC "-//W3C//DTD SVG 20010904//EN"
 "http://www.w3.org/TR/2001/REC-SVG-20010904/DTD/svg10.dtd">
<svg version="1.0" xmlns="http://www.w3.org/2000/svg"
 width="160.000000pt" height="160.000000pt" viewBox="0 0 160.000000 160.000000"
 preserveAspectRatio="xMidYMid meet">
<metadata>
Created by potrace 1.11, written by Peter Selinger 2001-2013
</metadata>
<g transform="translate(0.000000,160.000000) scale(0.100000,-0.100000)"
fill="#000000" stroke="none">
<path d="M746 1433 c-21 -7 -48 -24 -60 -38 -83 -101 -73 -95 -166 -97 -95 -1
-146 -20 -174 -62 -23 -36 -54 -54 -103 -60 -95 -12 -138 -64 -156 -186 -2 -8
-5 -19 -8 -25 -6 -13 -3 -270 4 -315 3 -19 9 -53 12 -75 18 -106 73 -134 215
-110 30 5 40 3 40 -7 0 -7 11 -26 24 -43 22 -27 29 -29 95 -31 75 -3 177 18
199 40 11 11 18 9 38 -11 14 -14 31 -23 38 -20 7 3 19 1 26 -3 11 -7 10 -11
-3 -25 -10 -9 -18 -22 -18 -28 -7 -59 -3 -82 16 -105 22 -26 20 -26 225 -23
47 1 96 -1 110 -4 14 -3 70 -8 125 -11 94 -5 102 -4 135 18 19 13 58 58 87
101 105 158 115 258 44 440 -33 87 -42 125 -46 190 -5 104 -17 153 -59 252
-73 171 -96 192 -218 200 -34 2 -68 -3 -99 -15 -58 -23 -91 -18 -147 20 -39
27 -62 36 -117 44 -12 1 -38 -3 -59 -11z"/>
</g>
</svg>
