<?xml version="1.0" standalone="no"?>
<!DOCTYPE svg PUBLIC "-//W3C//DTD SVG 20010904//EN"
 "http://www.w3.org/TR/2001/REC-SVG-20010904/DTD/svg10.dtd">
<svg version="1.0" xmlns="http://www.w3.org/2000/svg"
 width="144.000000pt" height="144.000000pt" viewBox="0 0 144.000000 144.000000"
 preserveAspectRatio="xMidYMid meet">
<metadata>
Created by potrace 1.11, written by Peter Selinger 2001-2013
</metadata>
<g transform="translate(0.000000,144.000000) scale(0.100000,-0.100000)"
fill="#000000" stroke="none">
<path d="M672 1293 c-12 -2 -34 -18 -50 -35 -86 -95 -74 -88 -151 -88 -88 0
-116 -11 -166 -64 -34 -37 -48 -44 -91 -50 -59 -7 -88 -30 -118 -95 -19 -42
-21 -64 -21 -226 0 -194 12 -270 47 -302 16 -14 37 -18 105 -18 78 0 86 -2 94
-22 13 -34 49 -53 104 -53 57 0 162 23 177 38 8 8 15 6 26 -4 8 -8 27 -18 43
-21 27 -5 28 -7 14 -26 -20 -28 -19 -101 1 -121 18 -19 21 -19 179 -20 66 -1
167 -5 225 -10 101 -8 106 -7 140 16 19 13 54 55 77 93 90 148 98 233 38 385
-29 73 -39 117 -45 190 -6 61 -18 121 -35 165 -14 39 -33 88 -41 111 -35 96
-144 146 -243 111 -69 -24 -97 -21 -153 14 -48 31 -106 43 -156 32z m166 -79
c12 -8 22 -24 22 -37 0 -34 28 -67 56 -67 13 0 41 15 63 35 64 58 96 43 122
-57 10 -38 10 -71 0 -170 -8 -68 -20 -140 -27 -162 -8 -21 -14 -71 -14 -111 0
-63 -3 -76 -25 -99 -26 -28 -49 -33 -61 -14 -4 7 -13 80 -20 164 -10 121 -34
255 -49 272 -1 1 -13 -2 -27 -8 -32 -15 -77 -91 -89 -154 -6 -28 -15 -67 -20
-87 -5 -20 -9 -54 -9 -75 -1 -77 -54 -154 -107 -154 -34 0 -43 28 -58 176 -14
129 -40 244 -56 244 -4 0 -11 -15 -15 -32 -3 -18 -12 -42 -20 -53 -23 -36 -44
-141 -44 -220 0 -87 -8 -108 -50 -130 -66 -34 -84 -9 -101 135 -6 58 -21 130
-32 160 l-20 54 -13 -44 c-8 -25 -17 -88 -20 -140 -8 -108 -19 -130 -70 -130
-45 0 -49 17 -49 215 1 206 7 225 81 254 31 11 68 21 83 21 21 0 41 14 80 55
29 30 60 59 71 65 26 14 70 12 100 -5 14 -8 34 -14 46 -15 24 0 74 49 74 72 0
18 43 53 75 61 30 7 97 -4 123 -19z"/>
</g>
</svg>
